<svg xmlns="http://www.w3.org/2000/svg" width="270" height="82"  xmlns:v="https://vecta.io/nano"><path d="M40.347 60.322l-.122-32.373L256.698 4.11l12.545 77.232z" fill-opacity=".75"/><g fill="#fff"><path d="M262.1 75.27L249.957 8.306l3.214-.536 10.357 67.679z"/><path d="M263.529 75.449L42.68 60.226l.089-3.661L263.26 74.288zM253.171 7.77L43.012 27.258l-.063 2.399 210.58-19.163z"/><path d="M42.68 60.226l.331-32.968 1.722-.202.045 33.259z"/></g><path d="M0 21.254L76.32 0l12.528 19.976-32.356 6.164 1.136 2.115-14.68 1.402 8.791 9.697-11.017-2.431 9.723 11.775L26.74 33.366l3.699-.229-1.678-1.685-22.024 3.988z" fill-opacity=".75"/><path d="M8.171 33.574L3.143 22.507 75.404 1.654l8.393 15.313-32.679 7.143.714 2.589-11.607 1.25 7.946 8.393-9.292-1.705 6.725 9.681-14.531-9.718 2.187-1.027-5.089-4.286z" fill="#fff"/></svg>